#!OML:ASF H:\Swim 2\Project 1\Capture day 1\Session 1\male.ASF
:FULLY-SPECIFIED
:DEGREES
1345
root 7.72393 10.1047 13.0358 103.534 -1.91186 1.72027
lowerback -17.2289 -0.959184 0.0371056
upperback -10.9774 -1.34255 -0.794951
thorax -2.09985 -0.739307 -1.05597
lowerneck -7.44774 1.29778 -4.93149
upperneck 47.7228 1.92397 3.25768
head 19.7455 0.232415 2.87101
rclavicle -1.92821e-014 -2.00773e-014
rhumerus 6.80378 -19.2731 15.5725
rradius 42.1487
rwrist -38.3911
rhand 25.977 -1.57698
rfingers 7.12502
rthumb 50.0567 -22.7699
lclavicle -1.92821e-014 -2.00773e-014
lhumerus 6.02711 -0.665858 -25.0515
lradius 35.0892
lwrist 30.682
lhand 5.42299 3.71238
lfingers 7.12502
lthumb 30.7733 31.1568
rfemur -24.1534 4.44548 17.1301
rtibia 60.0458
rfoot 20.4912 -4.007
rtoes 25.2839
lfemur -23.559 -5.14129 -22.2776
ltibia 66.2671
lfoot 8.10035 2.3046
ltoes 31.6517
1346
root 7.72681 10.102 13.0087 103.678 -1.89653 1.60568
lowerback -17.0923 -0.855565 0.130077
upperback -10.9136 -1.21337 -0.847311
thorax -2.10157 -0.677766 -1.14242
lowerneck -6.96816 1.12534 -4.46878
upperneck 47.5429 1.66388 2.8941
head 19.5122 0.181901 2.54183
rclavicle -5.1684e-015 -4.62174e-015
rhumerus 9.51839 -19.3976 16.4181
rradius 42.983
rwrist -38.7909
rhand 26.7564 -1.39541
rfingers 7.12502
rthumb 50.7686 -22.205
lclavicle -5.1684e-015 -4.62174e-015
lhumerus 8.88583 1.00667 -25.9041
lradius 35.9181
lwrist 30.4695
lhand 5.31039 3.10999
lfingers 7.12502
lthumb 30.666 30.5746
rfemur -23.7216 5.33988 17.1378
rtibia 55.9723
rfoot 20.5442 -4.50561
rtoes 25.0927
lfemur -23.3804 -5.54749 -22.3089
ltibia 62.9472
lfoot 7.02501 2.4044
ltoes 30.8495
1347
root 7.72847 10.0959 12.98 103.828 -1.86503 1.51569
lowerback -16.945 -0.757062 0.223915
upperback -10.8404 -1.09083 -0.900965
thorax -2.09838 -0.619589 -1.2319
lowerneck -6.56165 1.00306 -4.10684
upperneck 47.3098 1.42987 2.72745
head 19.2545 0.144829 2.3361
rclavicle -5.96354e-016 -3.18055e-015
rhumerus 12.2738 -19.7375 17.1634
rradius 43.7273
rwrist -39.1274
rhand 27.6049 -1.38791
rfingers 7.12502
rthumb 51.5413 -21.7621
lclavicle -5.96354e-016 -3.18055e-015
lhumerus 11.8104 2.9389 -26.5305
lradius 36.6437
lwrist 30.531
lhand 5.19062 2.78652
lfingers 7.12502
lthumb 30.5518 30.2725
rfemur -23.3134 6.27669 17.1461
rtibia 51.9156
rfoot 20.6786 -4.96433
rtoes 24.8644
lfemur -23.2222 -5.98702 -22.2908
ltibia 59.6327
lfoot 5.85802 2.57388
ltoes 30.0119
1348
root 7.72898 10.0864 12.9505 103.985 -1.81402 1.44925
lowerback -16.7999 -0.663499 0.321258
upperback -10.7565 -0.975 -0.952951
thorax -2.08229 -0.564814 -1.323
lowerneck -6.21859 0.940758 -3.86847
upperneck 47.0566 1.2281 2.78678
head 18.9951 0.122045 2.27161
rclavicle 1.23246e-014 1.5207e-014
rhumerus 15.1187 -20.3038 17.7387
rradius 44.35
rwrist -39.4142
rhand 28.6029 -1.57231
rfingers 7.12502
rthumb 52.4466 -21.4089
lclavicle 1.23246e-014 1.5207e-014
lhumerus 14.8109 5.08391 -26.8896
lradius 37.2789
lwrist 30.8902
lhand 5.02496 2.74922
lfingers 7.12502
lthumb 30.3938 30.2645
rfemur -22.9445 7.24988 17.1554
rtibia 47.9205
rfoot 20.8452 -5.37475
rtoes 24.6115
lfemur -23.087 -6.46565 -22.2185
ltibia 56.337
lfoot 4.64286 2.81302
ltoes 29.0853
1349
root 7.72869 10.0738 12.9203 104.143 -1.75265 1.40393
lowerback -16.6633 -0.573737 0.409911
upperback -10.6599 -0.862529 -1.00079
thorax -2.04764 -0.510885 -1.40579
lowerneck -5.89417 0.890047 -3.67231
upperneck 46.7943 1.03542 2.90415
head 18.737 0.100916 2.24538
rclavicle -7.15625e-015 -1.6201e-014
rhumerus 18.096 -21.0774 18.088
rradius 44.8235
rwrist -39.6307
rhand 29.6809 -1.90307
rfingers 7.12502
rthumb 53.4198 -21.1259
lclavicle -7.15625e-015 -1.6201e-014
lhumerus 17.9032 7.3861 -26.9321
lradius 37.8322
lwrist 31.4463
lhand 4.77914 2.92958
lfingers 7.12502
lthumb 30.1593 30.4879
rfemur -22.6288 8.23952 17.1516
rtibia 44.0415
rfoot 20.9762 -5.73607
rtoes 24.3675
lfemur -22.9764 -6.9956 -22.1031
ltibia 53.0846
lfoot 3.40222 3.13218
ltoes 28.0382
1350
root 7.72803 10.0587 12.8899 104.289 -1.69305 1.38156
lowerback -16.5407 -0.487315 0.479404
upperback -10.5416 -0.75127 -1.04448
thorax -1.98162 -0.455989 -1.4741
lowerneck -5.58151 0.846805 -3.53316
upperneck 46.5483 0.853523 3.0694
head 18.4958 0.0784752 2.25578
rclavicle 5.96354e-015 -1.16786e-015
rhumerus 21.2277 -22.0106 18.173
rradius 45.121
rwrist -39.7104
rhand 30.6714 -2.21474
rfingers 7.12502
rthumb 54.3095 -20.8413
lclavicle 5.96354e-015 -1.16786e-015
lhumerus 21.1079 9.83173 -26.5846
lradius 38.3073
lwrist 31.9768
lhand 4.46316 3.21837
lfingers 7.12502
lthumb 29.8578 30.8313
rfemur -22.3734 9.21938 17.1242
rtibia 40.3387
rfoot 21.0201 -6.06048
rtoes 24.2206
lfemur -22.89 -7.5902 -21.9606
ltibia 49.9097
lfoot 2.15587 3.5361
ltoes 26.7703
1351
root 7.72728 10.0418 12.8592 104.405 -1.65503 1.38109
lowerback -16.4235 -0.403427 0.517917
upperback -10.3965 -0.638566 -1.09316
thorax -1.88321 -0.398386 -1.5303
lowerneck -5.28428 0.831045 -3.49181
upperneck 46.3255 0.696977 3.34017
head 18.2745 0.0602113 2.33967
rclavicle -6.95746e-016 -3.50358e-015
rhumerus 24.5244 -23.069 17.9476
rradius 45.2389
rwrist -39.641
rhand 31.4946 -2.46059
rfingers 7.12502
rthumb 55.0454 -20.5664
lclavicle -6.95746e-016 -3.50358e-015
lhumerus 24.4579 12.3753 -25.7962
lradius 38.698
lwrist 32.2519
lhand 4.0976 3.47084
lfingers 7.12502
lthumb 29.5089 31.1459
rfemur -22.1823 10.1527 17.0597
rtibia 36.8776
rfoot 20.9447 -6.39054
rtoes 24.1873
lfemur -22.829 -8.25296 -21.8149
ltibia 46.8569
lfoot 0.915473 4.02741
ltoes 25.2118
1352
root 7.72672 10.024 12.8286 104.486 -1.64365 1.4077
lowerback -16.3134 -0.319464 0.525683
upperback -10.2193 -0.520867 -1.15252
thorax -1.74628 -0.336394 -1.57986
lowerneck -4.9896 0.822507 -3.49582
upperneck 46.1442 0.550421 3.64907
head 18.0832 0.0416443 2.45281
rclavicle -4.96962e-016 -8.19987e-016
rhumerus 27.977 -24.2191 17.3756
rradius 45.1912
rwrist -39.4324
rhand 32.0229 -2.63508
rfingers 7.12502
rthumb 55.5158 -20.394
lclavicle -4.96962e-016 -8.19987e-016
lhumerus 27.9974 14.9604 -24.5241
lradius 38.9923
lwrist 32.1002
lhand 3.74924 3.55793
lfingers 7.12502
lthumb 29.1763 31.2912
rfemur -22.0699 10.9899 16.9667
rtibia 33.722
rfoot 20.7476 -6.7612
rtoes 24.3058
lfemur -22.808 -8.97834 -21.6724
ltibia 43.9792
lfoot -0.295834 4.59751
ltoes 23.2906
1353
root 7.72661 10.0062 12.7981 104.536 -1.6671 1.4699
lowerback -16.2146 -0.234908 0.499662
upperback -10.0128 -0.39705 -1.2306
thorax -1.57167 -0.269637 -1.62924
lowerneck -4.68801 0.806054 -3.4929
upperneck 46.0165 0.396099 3.95366
head 17.9281 0.0196777 2.56331
rclavicle -2.86995e-015 -3.27995e-015
rhumerus 31.5785 -25.4359 16.4171
rradius 44.9994
rwrist -39.1696
rhand 32.3943 -2.83904
rfingers 7.12502
rthumb 55.8457 -20.3478
lclavicle -2.86995e-015 -3.27995e-015
lhumerus 31.7744 17.5132 -22.7428
lradius 39.1711
lwrist 31.4539
lhand 3.47078 3.40626
lfingers 7.12502
lthumb 28.9103 31.1854
rfemur -22.0571 11.6795 16.8521
rtibia 30.9266
rfoot 20.4418 -7.20892
rtoes 24.2708
lfemur -22.8588 -9.7596 -21.5422
ltibia 41.3346
lfoot -1.44075 5.23221
ltoes 21.0244
1354
root 7.72659 9.98908 12.7678 104.553 -1.72183 1.56594
lowerback -16.1191 -0.147513 0.441768
upperback -9.77924 -0.26423 -1.3307
thorax -1.36615 -0.196979 -1.68229
lowerneck -4.36635 0.754155 -3.41433
upperneck 45.9516 0.206486 4.18385
head 17.8134 -0.0130651 2.62227
rclavicle 9.14409e-015 4.38569e-015
rhumerus 35.3263 -26.675 15.0333
rradius 44.6712
rwrist -38.8937
rhand 32.5917 -3.06469
rfingers 7.12502
rthumb 56.0207 -20.4384
lclavicle 9.14409e-015 4.38569e-015
lhumerus 35.8442 19.9702 -20.4201
lradius 39.1978
lwrist 30.3416
lhand 3.37461 2.96234
lfingers 7.12502
lthumb 28.8185 30.7572
rfemur -22.1486 12.1762 16.7391
rtibia 28.5317
rfoot 20.0335 -7.72171
rtoes 24.3421
lfemur -22.9992 -10.5618 -21.4237
ltibia 38.9767
lfoot -2.46806 5.88584
ltoes 18.5194
1355
root 7.72657 9.973 12.7383 104.54 -1.78704 1.7074
lowerback -16.0158 -0.0548541 0.369382
upperback -9.52463 -0.121434 -1.44685
thorax -1.14232 -0.118759 -1.74219
lowerneck -4.01063 0.633847 -3.20058
upperneck 45.9374 -0.0495094 4.26761
head 17.7294 -0.0663741 2.58063
rclavicle -6.55989e-015 -6.98231e-015
rhumerus 39.208 -27.864 13.231
rradius 44.215
rwrist -38.6432
rhand 32.6191 -3.29678
rfingers 7.12502
rthumb 56.045 -20.6516
lclavicle -6.55989e-015 -6.98231e-015
lhumerus 40.2377 22.2252 -17.5651
lradius 39.0501
lwrist 28.9472
lhand 3.49273 2.25715
lfingers 7.12502
lthumb 28.9313 30.0327
rfemur -22.3402 12.449 16.6686
rtibia 26.5554
rfoot 19.533 -8.26091
rtoes 24.4264
lfemur -23.2445 -11.3565 -21.3005
ltibia 36.9512
lfoot -3.35193 6.50277
ltoes 15.8164
1356
root 7.72638 9.95811 12.7096 104.503 -1.84767 1.90192
lowerback -15.9021 0.0420939 0.299649
upperback -9.25796 0.0274911 -1.5747
thorax -0.911322 -0.0377932 -1.81452
lowerneck -3.61303 0.445745 -2.85633
upperneck 45.9716 -0.377957 4.22834
head 17.6708 -0.140747 2.44986
rclavicle 1.78906e-015 3.67752e-015
rhumerus 43.2191 -28.9359 11.0139
rradius 43.6426
rwrist -38.4525
rhand 32.5257 -3.55326
rfingers 7.12502
rthumb 55.9622 -20.9723
lclavicle 1.78906e-015 3.67752e-015
lhumerus 44.9554 24.185 -14.2083
lradius 38.7209
lwrist 27.5094
lhand 3.79656 1.40605
lfingers 7.12502
lthumb 29.2215 29.1315
rfemur -22.6288 12.496 16.6656
rtibia 24.9945
rfoot 18.9701 -8.78722
rtoes 24.5509
lfemur -23.6092 -12.1151 -21.1623
ltibia 35.2841
lfoot -4.06457 7.01873
ltoes 13.1082
1357
root 7.72568 9.94436 12.6819 104.441 -1.89631 2.14503
lowerback -15.7647 0.138989 0.24396
upperback -8.98415 0.174697 -1.70907
thorax -0.68559 0.0414013 -1.90145
lowerneck -3.17818 0.210813 -2.43548
upperneck 46.0307 -0.761378 4.13173
head 17.6203 -0.230682 2.27255
rclavicle -3.97569e-016 -1.93815e-015
rhumerus 47.3432 -29.8231 8.41056
rradius 42.9797
rwrist -38.3345
rhand 32.3461 -3.85043
rfingers 7.12502
rthumb 55.8029 -21.392
lclavicle -3.97569e-016 -1.93815e-015
lhumerus 49.9233 25.7458 -10.4673
lradius 38.2456
lwrist 26.3417
lhand 4.18551 0.561497
lfingers 7.12502
lthumb 29.5928 28.2217
rfemur -22.9911 12.3607 16.7356
rtibia 23.8268
rfoot 18.3792 -9.27877
rtoes 24.7665
lfemur -24.0802 -12.7974 -21.0155
ltibia 33.9817
lfoot -4.62079 7.39939
ltoes 10.4924
1358
root 7.72423 9.93172 12.6556 104.363 -1.93069 2.43005
lowerback -15.6168 0.229504 0.211061
upperback -8.70172 0.31017 -1.84556
thorax -0.456867 0.113486 -2.00492
lowerneck -2.70975 -0.0556726 -1.97976
upperneck 46.089 -1.17906 4.00756
head 17.5601 -0.331529 2.07254
rclavicle 1.07344e-014 -1.81888e-014
rhumerus 51.5492 -30.4866 5.46032
rradius 42.2524
rwrist -38.2436
rhand 32.1547 -4.20793
rfingers 7.12502
rthumb 55.633 -21.8786
lclavicle 1.07344e-014 -1.81888e-014
lhumerus 55.0419 26.8628 -6.45312
lradius 37.6714
lwrist 25.6393
lhand 4.53896 -0.0742814
lfingers 7.12502
lthumb 29.9301 27.5256
rfemur -23.4215 12.1044 16.8665
rtibia 23.0227
rfoot 17.8398 -9.72676
rtoes 25.1071
lfemur -24.6483 -13.3745 -20.8683
ltibia 33.0281
lfoot -5.02561 7.62455
ltoes 8.09159
